HIERARCHY
ROOT SpineBase
{
  OFFSET 0.000000 0.000000 0.000000
  CHANNELS 6 Xposition Yposition Zposition Zrotation Xrotation Yrotation
  JOINT SpineMid
  {
    OFFSET -0.000000 30.070815 0.000000
    CHANNELS 3 Zrotation Xrotation Yrotation
    JOINT SpineShoulder
    {
      OFFSET -0.127319 22.343301 -0.762588
      CHANNELS 3 Zrotation Xrotation Yrotation
      JOINT Neck
      {
        OFFSET -0.074586 7.388448 -0.563504
        CHANNELS 3 Zrotation Xrotation Yrotation
        JOINT Head
        {
          OFFSET 5.495486 12.452511 -1.412195
          CHANNELS 3 Zrotation Xrotation Yrotation
          End Site
          {
            OFFSET 0 0 0
          }
        }
      }
      JOINT ShoulderLeft
      {
        OFFSET -11.839893 -3.074615 -8.797954
        CHANNELS 3 Zrotation Xrotation Yrotation
        JOINT ElbowLeft
        {
          OFFSET -5.285795 -24.294125 -3.894120
          CHANNELS 3 Zrotation Xrotation Yrotation
          JOINT WristLeft
          {
            OFFSET 3.792014 -20.610800 -3.898720
            CHANNELS 3 Zrotation Xrotation Yrotation
            JOINT HandLeft
            {
              OFFSET 1.492429 -5.138905 0.127103
              CHANNELS 3 Zrotation Xrotation Yrotation
              JOINT HandTipLeft
              {
                OFFSET 1.095127 -6.735340 -0.418317
                CHANNELS 3 Zrotation Xrotation Yrotation
                End Site
                {
                  OFFSET 0 0 0
                }
              }
              JOINT ThumbLeft
              {
                OFFSET 3.095860 -1.250289 -1.683932
                CHANNELS 3 Zrotation Xrotation Yrotation
                End Site
                {
                  OFFSET 0 0 0
                }
              }
            }
          }
        }
      }
      JOINT ShoulderRight
      {
        OFFSET 13.221794 -3.793169 7.112426
        CHANNELS 3 Zrotation Xrotation Yrotation
        JOINT ElbowRight
        {
          OFFSET 3.164161 -27.654925 4.323481
          CHANNELS 3 Zrotation Xrotation Yrotation
          JOINT WristRight
          {
            OFFSET 1.801788 -20.565283 -5.278029
            CHANNELS 3 Zrotation Xrotation Yrotation
            JOINT HandRight
            {
              OFFSET 1.095176 -2.549395 0.008168
              CHANNELS 3 Zrotation Xrotation Yrotation
              JOINT HandTipRight
              {
                OFFSET 0.357414 -3.738930 -1.712089
                CHANNELS 3 Zrotation Xrotation Yrotation
                End Site
                {
                  OFFSET 0 0 0
                }
              }
              JOINT ThumbRight
              {
                OFFSET -2.320347 1.080222 -1.664243
                CHANNELS 3 Zrotation Xrotation Yrotation
                End Site
                {
                  OFFSET 0 0 0
                }
              }
            }
          }
        }
      }
    }
  }
  JOINT HipLeft
  {
    OFFSET -6.468354 1.825722 -6.922160
    CHANNELS 3 Zrotation Xrotation Yrotation
    JOINT KneeLeft
    {
      OFFSET -6.898657 -28.909587 -1.565858
      CHANNELS 3 Zrotation Xrotation Yrotation
      JOINT AnkleLeft
      {
        OFFSET -3.438175 -33.664042 0.810113
        CHANNELS 3 Zrotation Xrotation Yrotation
        JOINT FootLeft
        {
          OFFSET 4.577835 -4.494003 -11.302002
          CHANNELS 3 Zrotation Xrotation Yrotation
          End Site
          {
            OFFSET 0 0 0
          }
        }
      }
    }
  }
  JOINT HipRight
  {
    OFFSET 5.742092 -0.695213 0.056728
    CHANNELS 3 Zrotation Xrotation Yrotation
    JOINT KneeRight
    {
      OFFSET -2.263077 -30.451104 9.216399
      CHANNELS 3 Zrotation Xrotation Yrotation
      JOINT AnkleRight
      {
        OFFSET 1.194948 -34.566926 10.466063
        CHANNELS 3 Zrotation Xrotation Yrotation
        JOINT FootRight
        {
          OFFSET 4.743875 -6.564649 -8.616869
          CHANNELS 3 Zrotation Xrotation Yrotation
          End Site
          {
            OFFSET 0 0 0
          }
        }
      }
    }
  }
}
MOTION
Frames: 10
Frame Time: 0.033333
38.288242 73.126527 407.242994 0.000000 0.000000 -29.750153 -0.000000 0.000000 29.750153 -0.000000 0.000000 0.000000 -0.000000 0.000000 0.000000 0.000000 0.000000 0.000000 -0.000000 0.000000 0.000000 -0.000000 0.000000 0.000000 -0.000000 0.000000 0.000000 -0.000000 0.000000 0.000000 0.000000 0.000000 0.000000 0.000000 0.000000 0.000000 -0.000000 0.000000 0.000000 -0.000000 0.000000 0.000000 -0.000000 0.000000 0.000000 -0.000000 0.000000 0.000000 0.000000 0.000000 0.000000 0.000000 0.000000 0.000000 -0.000000 0.000000 29.750153 -0.000000 0.000000 0.000000 -0.000000 0.000000 0.000000 0.000000 0.000000 0.000000 -0.000000 0.000000 29.750153 -0.000000 0.000000 0.000000 -0.000000 0.000000 0.000000 0.000000 0.000000 0.000000
38.228642 73.111146 407.161315 0.016862 -0.061586 -29.764618 -0.045211 0.045090 29.764645 -0.000000 0.000000 0.000000 -0.000000 0.000000 0.000000 0.000000 0.000000 0.000000 -0.000000 0.000000 0.000000 -0.000000 0.000000 0.000000 -0.000000 0.000000 0.000000 -0.154786 -1.293130 -0.202584 0.000000 0.000000 0.000000 0.000000 0.000000 0.000000 -0.000000 0.000000 0.000000 0.091663 -1.968461 -0.195277 -14.014675 1.108415 0.179673 15.410139 -6.959561 -1.087321 0.000000 0.000000 0.000000 0.000000 0.000000 0.000000 -0.045211 0.045090 29.764645 -0.000000 0.000000 0.000000 -2.618885 -5.091182 1.481441 0.000000 0.000000 0.000000 -0.045211 0.045090 29.764645 -0.804875 -0.104367 -0.248034 2.081882 -5.420677 -5.665467 0.000000 0.000000 0.000000
38.194629 73.091629 407.118039 0.057215 -0.158431 -29.742734 -0.128277 0.109175 29.742935 -0.000000 0.000000 0.000000 1.159344 0.255763 0.016098 0.000000 0.000000 0.000000 -0.000000 0.000000 0.000000 -0.000000 0.000000 0.000000 -0.696302 0.602336 0.161675 0.512842 -3.064704 -0.550116 0.000000 0.000000 0.000000 0.000000 0.000000 0.000000 -0.231927 -0.913389 -0.142471 0.314919 -2.659304 -0.195410 -25.188753 2.069077 0.993104 27.483435 -14.264665 -2.119059 0.000000 0.000000 0.000000 0.000000 0.000000 0.000000 -0.128277 0.109175 29.742935 -0.000000 0.000000 0.000000 -4.708889 -9.356499 2.540084 0.000000 0.000000 0.000000 -0.128277 0.109175 29.742935 -1.426202 -0.187017 -0.440606 3.382602 -9.980982 -10.358150 0.000000 0.000000 0.000000
38.186204 73.067975 407.113168 0.121032 -0.290472 -29.684730 -0.248999 0.192411 29.685455 -0.000000 0.000000 0.000000 1.575735 0.381491 0.005138 0.000000 0.000000 0.000000 -0.000000 0.000000 0.000000 0.935293 -0.506031 -0.265716 -1.983449 1.332051 0.508206 0.969831 -4.326551 -0.777849 0.000000 0.000000 0.000000 0.000000 0.000000 0.000000 -0.363544 -1.151940 -0.192062 0.333161 -3.655459 -0.231007 -33.131855 2.886144 2.086997 35.702603 -21.079813 -2.892932 0.000000 0.000000 0.000000 0.000000 0.000000 0.000000 -0.248999 0.192411 29.685455 -0.000000 0.000000 0.000000 -6.246871 -12.588682 3.238653 0.000000 0.000000 0.000000 -0.248999 0.192411 29.685455 -1.852780 -0.248578 -0.573579 4.094555 -13.330186 -13.836393 0.000000 0.000000 0.000000
38.203367 73.040184 407.146700 0.208257 -0.457596 -29.590329 -0.407060 0.295074 29.592209 -0.000000 0.000000 0.000000 1.883899 0.505763 -0.017992 0.000000 0.000000 0.000000 -0.000000 0.000000 0.000000 1.188136 -0.682030 -0.342896 -2.583040 1.686268 0.648772 1.565788 -5.386857 -0.963695 0.000000 0.000000 0.000000 0.000000 0.000000 0.000000 -0.505107 -1.245274 -0.226670 0.259585 -4.424360 -0.226567 -38.253669 3.636554 3.210427 40.516965 -26.732166 -3.355716 0.000000 0.000000 0.000000 0.000000 0.000000 0.000000 -0.407060 0.295074 29.592209 -0.000000 0.000000 0.000000 -7.223418 -14.674053 3.641584 0.000000 0.000000 0.000000 -0.407060 0.295074 29.592209 -2.076000 -0.289443 -0.643788 4.421148 -15.325282 -15.976545 0.000000 0.000000 0.000000
38.246117 73.008256 407.218637 0.318805 -0.659645 -29.458747 -0.602011 0.417555 29.462775 -0.000000 0.000000 0.000000 2.084124 0.628663 -0.052955 0.000000 0.000000 0.000000 -0.000000 0.000000 0.000000 1.414977 -0.862854 -0.415413 -3.153592 1.993412 0.773826 2.300413 -6.233555 -1.102757 0.000000 0.000000 0.000000 0.000000 0.000000 0.000000 -0.656382 -1.193682 -0.245797 0.094428 -4.964947 -0.182740 -41.093403 4.397554 4.225788 42.586491 -30.942180 -3.548096 0.000000 0.000000 0.000000 0.000000 0.000000 0.000000 -0.602011 0.417555 29.462775 -0.000000 0.000000 0.000000 -7.632565 -15.556204 3.796318 0.000000 0.000000 0.000000 -0.602011 0.417555 29.462775 -2.089998 -0.309660 -0.649098 4.502851 -15.931074 -16.724306 0.000000 0.000000 0.000000
38.344668 72.957506 407.378159 0.476077 -0.950112 -29.207369 -0.879216 0.596949 29.215896 0.289975 -0.852907 0.015655 1.852225 1.607537 -0.148887 0.000000 0.000000 0.000000 -0.289774 0.852975 -0.011339 1.637087 -1.073920 -0.491511 -3.584800 2.359469 0.917007 2.947847 -6.884140 -1.211017 0.000000 0.000000 0.000000 0.000000 0.000000 0.000000 -1.211247 0.033278 -0.242012 -0.019836 -5.359397 -0.105510 -42.619852 4.799974 4.740578 41.486049 -35.669615 -3.625833 0.000000 0.000000 0.000000 0.000000 0.000000 0.000000 -1.990015 0.971052 29.066731 0.917260 -0.060809 0.092240 -7.214076 -15.172170 3.561448 0.000000 0.000000 0.000000 -1.678030 0.857001 29.007342 -1.459007 -1.117351 -0.441271 4.090366 -13.410769 -13.871515 0.000000 0.000000 0.000000
38.456638 72.923714 407.535406 0.652664 -1.226724 -28.930737 -1.164730 0.757785 28.945427 0.385435 -1.043188 0.022358 1.669760 1.919479 -0.224261 0.000000 0.000000 0.000000 -0.385092 1.043315 -0.015343 1.755103 -1.329622 -0.555939 -3.651417 3.260247 1.200287 2.964456 -8.808530 -1.575339 0.000000 0.000000 0.000000 0.000000 0.000000 0.000000 -1.495464 0.623589 -0.220921 -0.351103 -5.537935 0.007633 -41.033376 5.584772 5.104262 40.593935 -36.209518 -3.680729 0.000000 0.000000 0.000000 0.000000 0.000000 0.000000 -2.863671 1.420994 28.706915 1.171951 -1.397131 0.285106 -3.339559 -6.672204 1.701908 0.000000 0.000000 0.000000 -2.269781 1.167683 28.664468 -0.847092 -1.438883 -0.236939 4.891649 -10.833804 -13.108420 0.000000 0.000000 0.000000
38.572714 72.881232 407.711457 0.833771 -1.514702 -28.656682 -0.734914 0.348562 28.678731 0.135489 -0.384739 0.018307 1.339745 2.270711 -0.325272 0.000000 0.000000 0.000000 -0.491047 1.241278 -0.019618 1.914009 -1.493564 -0.611562 -4.297458 3.312795 1.248372 5.041448 -9.441587 -1.579558 0.000000 0.000000 0.000000 0.000000 0.000000 0.000000 -1.772952 1.228123 -0.194140 -0.759080 -5.484728 0.150727 -38.029665 6.703632 5.517726 36.335643 -35.691813 -3.381561 0.000000 0.000000 0.000000 0.000000 0.000000 0.000000 -3.803664 1.900543 28.353071 1.603837 -1.967283 0.411916 -3.347558 -5.986868 2.553448 0.000000 0.000000 0.000000 -2.825211 1.497775 28.341502 0.142807 -1.571606 0.103246 2.889580 -8.575401 -9.700968 0.000000 0.000000 0.000000
38.666749 72.840205 407.876180 0.983264 -1.784176 -28.502838 -0.876800 0.439388 28.532167 0.161951 -0.445726 0.022208 1.124719 2.537931 -0.382357 0.000000 0.000000 0.000000 -0.583717 1.425548 -0.022889 2.044857 -1.601919 -0.652573 -4.444919 3.639216 1.371334 5.313853 -8.371477 -1.438601 0.000000 0.000000 0.000000 0.000000 0.000000 0.000000 -2.038260 1.969888 -0.145194 -1.197489 -5.312435 0.305100 -35.841224 9.669167 7.722777 30.900897 -36.938659 -3.505495 0.000000 0.000000 0.000000 0.000000 0.000000 0.000000 -4.642704 2.341720 28.137392 1.996810 -2.473905 0.528201 -4.241659 -9.218341 1.210614 0.000000 0.000000 0.000000 -3.286024 1.835048 28.158913 1.036995 -1.389854 0.428456 1.883387 -8.756294 -9.489271 0.000000 0.000000 0.000000
